<svg width="32" height="32" viewBox="0 0 32 32" fill="none" xmlns="http://www.w3.org/2000/svg">
  <!-- Background circle -->
  <circle cx="16" cy="16" r="16" fill="#2563EB"/>
  
  <!-- Wallet shape -->
  <path d="M8 12C8 10.8954 8.89543 10 10 10H22C23.1046 10 24 10.8954 24 12V20C24 21.1046 23.1046 22 22 22H10C8.89543 22 8 21.1046 8 20V12Z" fill="white"/>
  
  <!-- Wallet flap -->
  <path d="M8 12C8 10.8954 8.89543 10 10 10H20C21.1046 10 22 10.8954 22 12V14H8V12Z" fill="#E5E7EB"/>
  
  <!-- Dollar sign -->
  <circle cx="19" cy="17" r="2.5" fill="#2563EB"/>
  <path d="M18.5 15.5V18.5M19.5 15.5V18.5M17.5 16.5H20.5M17.5 17.5H20.5" stroke="white" stroke-width="0.8" stroke-linecap="round"/>
</svg>